<svg width="130" height="130" viewBox="0 0 130 130" fill="none" xmlns="http://www.w3.org/2000/svg">
<rect width="130" height="130" rx="30" fill="#7E3E93"/>
<path fill-rule="evenodd" clip-rule="evenodd" d="M45.0322 52.6379C45.0763 54.8694 43.862 57.8859 42.2831 59.4618C40.8181 60.9282 39.9951 62.9163 39.9951 64.9891C39.9951 67.0619 40.8181 69.05 42.2831 70.5164C43.8414 72.0687 44.9881 74.7618 45.0322 76.961C45.0734 78.9073 45.8349 80.8419 47.3197 82.3237C48.6896 83.6963 50.5221 84.5087 52.4591 84.6022C54.7848 84.7198 57.8308 86.0722 59.4773 87.7187C60.9437 89.1828 62.9312 90.0051 65.0034 90.0051C67.0756 90.0051 69.0631 89.1828 70.5295 87.7187C72.176 86.0722 75.222 84.7198 77.5477 84.6022C79.4847 84.5087 81.3173 83.6963 82.6871 82.3237C84.1153 80.8976 84.9342 78.973 84.9717 76.9551C85.0158 74.7618 86.1477 72.0864 87.7031 70.534C89.1737 69.0681 90.0018 67.078 90.0051 65.0016C90.0084 62.9251 89.1867 60.9324 87.7207 59.4618C86.1448 57.8889 84.9276 54.8694 84.9746 52.6409C84.9967 51.5887 84.8055 50.5429 84.4123 49.5666C84.0192 48.5904 83.4323 47.7039 82.6871 46.9607C81.9148 46.1864 80.9882 45.5833 79.9675 45.1908C78.9467 44.7982 77.8548 44.6249 76.7627 44.6821C74.6634 44.788 72.0143 43.7707 70.5295 42.283C69.063 40.818 67.0749 39.9951 65.0019 39.9951C62.929 39.9951 60.9409 40.818 59.4744 42.283C57.9925 43.7678 55.3405 44.788 53.2412 44.6821C52.1496 44.6253 51.0582 44.7988 50.038 45.1914C49.0178 45.5839 48.0916 46.1868 47.3197 46.9607C46.5749 47.7035 45.9882 48.5896 45.5951 49.5653C45.2019 50.541 45.0105 51.5862 45.0322 52.6379ZM73.9283 55.0664C74.266 55.2538 74.5635 55.5059 74.8038 55.8083C75.0441 56.1106 75.2224 56.4574 75.3286 56.8287C75.4348 57.2 75.4668 57.5886 75.4228 57.9723C75.3788 58.356 75.2596 58.7273 75.0721 59.0649L66.9336 73.7122C66.7228 74.1112 66.423 74.4562 66.0575 74.7207C65.5262 75.105 64.8817 75.3008 64.2265 75.2768C63.5712 75.2528 62.9428 75.0105 62.441 74.5884L54.3291 68.0997C54.0275 67.8584 53.7765 67.56 53.5902 67.2217C53.404 66.8834 53.2862 66.5117 53.2436 66.1278C53.201 65.7439 53.2344 65.3555 53.342 64.9845C53.4495 64.6136 53.6291 64.2675 53.8704 63.966C54.1117 63.6644 54.4101 63.4134 54.7484 63.2271C55.0868 63.0409 55.4585 62.9231 55.8424 62.8805C56.2262 62.8379 56.6147 62.8713 56.9857 62.9789C57.3566 63.0864 57.7027 63.266 58.0043 63.5073L63.4525 67.8674L69.9297 56.2071C70.1173 55.8697 70.3696 55.5725 70.6721 55.3325C70.9746 55.0926 71.3214 54.9146 71.6927 54.8086C72.064 54.7027 72.4526 54.6709 72.8362 54.7152C73.2198 54.7594 73.5909 54.8787 73.9283 55.0664Z" fill="white"/>
</svg>
